PathFileType	4	(X/Y/Z)	Walk2.trc
DataRate	CameraRate	NumFrames	NumMarkers	Units	OrigDataRate	OrigDataStartFrame	OrigNumFrames
200.000000	200.000000	8	67	mm	200.000000	913	955
Frame#	Times		LBHD		LowerBodyModelVer		LWRR		RLFC		LElbow		RTH2		RToe		LACR1		RMT5		C7		RTB2		LCAR		LUA1		RTB3		RMT1		RTB4		LWRU		RMMAL		LToe		RCAR		RCAL		LTH3		RASI		RFA1		LASI		PELOrigin		LLFC		RElbow		RElbowM		LPSI		RTH3		LTB2		RPSI		LHJC		MidPelvis		OPelvis		RHJC		SACR		XPelvis		YPelvis		ZPelvis		LFHD		LMMAL		LCAL		RBHD		RUA1		LMT5		T10		STRN		RACR1		LTH2		RMFC		RLMAL		RKJC		LLMAL		RFHD		CLAV		LTH4		RWRR		LTB1		LTH1		LTB3		LTB4		RTB1		LMT1		RTH1		RTH4
			X1	Y1	Z1	X2	Y2	Z2	X3	Y3	Z3	X4	Y4	Z4	X5	Y5	Z5	X6	Y6	Z6	X7	Y7	Z7	X8	Y8	Z8	X9	Y9	Z9	X10	Y10	Z10	X11	Y11	Z11	X12	Y12	Z12	X13	Y13	Z13	X14	Y14	Z14	X15	Y15	Z15	X16	Y16	Z16	X17	Y17	Z17	X18	Y18	Z18	X19	Y19	Z19	X20	Y20	Z20	X21	Y21	Z21	X22	Y22	Z22	X23	Y23	Z23	X24	Y24	Z24	X25	Y25	Z25	X26	Y26	Z26	X27	Y27	Z27	X28	Y28	Z28	X29	Y29	Z29	X30	Y30	Z30	X31	Y31	Z31	X32	Y32	Z32	X33	Y33	Z33	X34	Y34	Z34	X35	Y35	Z35	X36	Y36	Z36	X37	Y37	Z37	X38	Y38	Z38	X39	Y39	Z39	X40	Y40	Z40	X41	Y41	Z41	X42	Y42	Z42	X43	Y43	Z43	X44	Y44	Z44	X45	Y45	Z45	X46	Y46	Z46	X47	Y47	Z47	X48	Y48	Z48	X49	Y49	Z49	X50	Y50	Z50	X51	Y51	Z51	X52	Y52	Z52	X53	Y53	Z53	X54	Y54	Z54	X55	Y55	Z55	X56	Y56	Z56	X57	Y57	Z57	X58	Y58	Z58	X59	Y59	Z59	X60	Y60	Z60	X61	Y61	Z61	X62	Y62	Z62	X63	Y63	Z63	X64	Y64	Z64	X65	Y65	Z65	X66	Y66	Z66	X67	Y67	Z67

913	4.565	753.85	1618	-79.049	9	2014	4	822.91	816.17	-289.49	908.67	540.97	140.37	741.31	1086.3	-291.84	925	696.87	117.09	852.09	70.238	116.63	814.25	1424.8	-182.33	771.35	74.703	152.62	720.32	1484.3	-15.226	834.33	326.43	137.3	765.61	947.53	-295.28	784.67	1220.8	-255.4	789.12	247.44	65.992	805.7	59.962	79.372	841.68	319.34	62.321	896.67	807.78	-276.65	707.69	141.96	47.01	957.2	33.588	-51.293	819.06	803.36	276.86	616.49	130.69	65.613	808.25	580.31	-133.99	822.61	999.72	145.14	731	940	277.2	826.12	1038.7	-156.97	824.37	1019.2	-5.9161	801.18	516.97	-123.01	703.21	1099.5	271.57	669.89	1102.9	192.73	634.53	1041.8	-41.002	897.92	583.35	141.96	819.78	297.46	-104.55	631.28	1041.6	28.176	743.35	944.74	-120.93	728.64	1030.5	-6.1647	824.37	1019.2	-5.9161	740.96	918.2	84.513	632.9	1041.7	-6.4132	903.83	1010	-6.1873	833.58	1098	4.3687	823.45	1009	73.42	932.75	1648.3	-53.837	775.35	70.25	7.5012	686.46	35.053	-21.127	758.64	1613.5	57.573	783.64	1256	229.71	862.15	22.396	-106.46	647.73	1226.8	-7.3857	839.2	1204.4	-6.8886	696.75	1377.9	137.11	864.01	682.5	-119.07	890.63	509.21	12.738	680.49	153.85	124.33	899.65	525.09	76.553	747.84	59.254	-72.54	935.18	1647.3	21.082	866.74	1411.7	-18.906	801.52	672.64	-156.55	822.95	845.32	224.91	843.99	390.5	-38.089	794.4	763.18	-175.63	811.02	208.4	-29.161	826.57	299.88	-32.533	900.37	397.28	61.553	905.78	30.827	-24.462	830.59	759.68	172.38	869.32	672.66	160.29
914	4.57	758.17	1618.3	-79.428	9	2014	4	831.84	817.19	-290.04	915.42	542.13	139.88	747.56	1086.5	-292.75	930.7	698.19	116.52	868.84	70.046	116.01	818.62	1425.3	-182.74	787.69	72.607	151.6	724.64	1484.5	-15.677	845.01	325.72	136.48	773.14	947.94	-295.92	790.13	1221.3	-256.04	802	245.79	64.933	822.86	58.845	78.539	853.09	318.97	61.393	905.66	809.5	-277.15	722.97	138.5	45.777	957.32	33.394	-51.48	822.74	803.45	276.14	631.87	125.18	63.943	810.34	580.28	-134.25	827.35	1000.1	144.62	734.83	940.23	276.39	830.64	1039.1	-157.61	828.99	1019.6	-6.4987	802.77	516.91	-123.28	707.23	1099.8	270.82	674.06	1103.2	191.94	639.05	1042.1	-41.28	904.33	584.64	141.65	820.55	297.23	-104.69	635.87	1041.9	27.896	747.88	945.03	-121.49	733.23	1030.8	-6.5954	828.99	1019.6	-6.4987	745.64	918.49	84.026	637.46	1042	-6.692	908.46	1010.3	-6.8254	838.19	1098.4	3.7771	828.13	1009.3	72.838	937.08	1648.7	-54.138	775.34	70.253	7.5422	686.46	35.077	-21.076	762.91	1613.7	57.204	787.78	1256.2	229.16	862.14	22.394	-106.51	652.22	1227	-7.8455	843.75	1204.6	-7.6522	701.04	1378.1	136.58	866.76	682.12	-119.26	897.5	510.14	12.288	695.12	149.65	122.95	906.46	526.14	76.084	747.87	59.24	-72.482	939.47	1647.6	20.781	871.1	1412.1	-19.325	804.21	672.63	-156.87	826.83	845.47	224.25	845.07	390.23	-38.302	797.73	763.22	-175.96	811.47	208.25	-29.24	827.32	299.65	-32.657	909.61	397.92	61.194	905.79	30.84	-24.535	836.8	760.86	171.78	875.26	673.67	159.96
915	4.575	762.52	1618.6	-79.809	9	2014	4	840.74	818.19	-290.56	922.02	543.21	139.41	753.78	1086.6	-293.66	936.29	699.43	115.94	885.69	69.853	115.41	823.01	1425.7	-183.13	804.16	70.503	150.58	728.99	1484.8	-16.114	855.68	324.96	135.68	780.65	948.32	-296.54	795.56	1221.6	-256.67	814.94	244.12	63.89	840.12	57.751	77.717	864.5	318.54	60.487	914.61	811.2	-277.62	738.43	135.02	44.534	957.44	33.204	-51.664	826.49	803.52	275.42	647.49	119.65	62.249	812.44	580.25	-134.49	832.06	1000.3	144.13	738.71	940.41	275.61	835.16	1039.4	-158.27	833.61	1019.9	-7.0747	804.37	516.84	-123.54	711.27	1100	270.11	678.25	1103.6	191.2	643.57	1042.3	-41.551	910.62	585.86	141.38	821.33	297	-104.82	640.46	1042.1	27.62	752.39	945.28	-122.09	737.81	1031	-7.0201	833.61	1019.9	-7.0747	750.28	918.71	83.545	642.01	1042.2	-6.9655	913.08	1010.6	-7.4513	842.81	1098.7	3.2002	832.8	1009.6	72.262	941.42	1648.9	-54.446	775.33	70.25	7.59	686.47	35.092	-21.012	767.2	1614	56.832	791.93	1256.5	228.64	862.14	22.395	-106.56	656.71	1227.2	-8.2849	848.31	1204.8	-8.3941	705.35	1378.3	136.06	869.5	681.73	-119.41	904.17	510.97	11.876	709.92	145.42	121.57	913.09	527.09	75.642	747.89	59.227	-72.422	943.78	1647.9	20.474	875.48	1412.4	-19.735	806.92	672.61	-157.18	830.74	845.59	223.58	846.17	389.96	-38.501	801.06	763.24	-176.27	811.92	208.11	-29.304	828.09	299.43	-32.772	918.75	398.51	60.885	905.79	30.856	-24.608	842.82	761.9	171.23	881.11	674.61	159.62
916	4.58	766.89	1618.8	-80.191	9	2014	4	849.6	819.18	-291.06	928.47	544.2	138.95	759.99	1086.7	-294.56	941.78	700.56	115.34	902.62	69.668	114.84	827.41	1426.1	-183.52	820.75	68.406	149.57	733.37	1485	-16.534	866.34	324.15	134.89	788.14	948.67	-297.15	800.98	1221.9	-257.31	827.95	242.43	62.868	857.48	56.693	76.909	875.91	318.06	59.614	923.51	812.88	-278.07	754.07	131.55	43.281	957.56	33.02	-51.842	830.3	803.55	274.69	663.33	114.14	60.534	814.56	580.2	-134.72	836.75	1000.5	143.67	742.63	940.56	274.86	839.7	1039.7	-158.95	838.23	1020.1	-7.6439	806	516.75	-123.79	715.35	1100.2	269.44	682.46	1103.8	190.51	648.07	1042.5	-41.816	916.76	587.02	141.14	822.12	296.76	-104.93	645.05	1042.3	27.349	756.88	945.47	-122.71	742.39	1031.3	-7.4387	838.23	1020.1	-7.6439	754.88	918.86	83.073	646.56	1042.4	-7.2334	917.69	1010.9	-8.0643	847.44	1098.9	2.6369	837.45	1009.8	71.692	945.78	1649.2	-54.758	775.33	70.241	7.6454	686.47	35.099	-20.935	771.52	1614.2	56.461	796.11	1256.6	228.15	862.14	22.396	-106.6	661.21	1227.3	-8.705	852.88	1205	-9.1155	709.69	1378.5	135.57	872.25	681.34	-119.53	910.65	511.71	11.499	724.89	141.16	120.19	919.56	527.96	75.225	747.93	59.216	-72.36	948.12	1648.1	20.162	879.88	1412.6	-20.137	809.63	672.57	-157.48	834.68	845.67	222.89	847.27	389.68	-38.682	804.41	763.24	-176.58	812.38	207.96	-29.353	828.89	299.2	-32.878	927.79	399.08	60.619	905.8	30.873	-24.681	848.67	762.8	170.72	886.86	675.49	159.28
917	4.585	771.28	1619	-80.571	9	2014	4	858.42	820.14	-291.52	934.76	545.11	138.51	766.19	1086.8	-295.47	947.18	701.58	114.74	919.64	69.498	114.28	831.83	1426.4	-183.89	837.46	66.331	148.55	737.78	1485.1	-16.937	876.97	323.31	134.13	795.61	948.99	-297.76	806.38	1222.2	-257.95	841	240.74	61.874	874.93	55.681	76.117	887.28	317.52	58.782	932.38	814.55	-278.49	769.89	128.1	42.022	957.66	32.841	-52.014	834.18	803.54	273.95	679.4	108.65	58.803	816.7	580.14	-134.94	841.43	1000.6	143.24	746.6	940.67	274.15	844.25	1039.9	-159.65	842.84	1020.3	-8.206	807.64	516.65	-124.03	719.45	1100.3	268.81	686.69	1104	189.86	652.57	1042.7	-42.073	922.77	588.1	140.93	822.92	296.52	-105.03	649.63	1042.5	27.082	761.36	945.61	-123.35	746.97	1031.4	-7.8507	842.84	1020.3	-8.206	759.45	918.94	82.612	651.1	1042.6	-7.4954	922.3	1011	-8.6644	852.06	1099.1	2.086	842.1	1010	71.128	950.17	1649.4	-55.073	775.34	70.224	7.709	686.48	35.098	-20.847	775.86	1614.3	56.091	800.3	1256.8	227.68	862.13	22.397	-106.64	665.71	1227.4	-9.1069	857.45	1205.1	-9.8174	714.06	1378.6	135.09	875	680.93	-119.62	916.95	512.33	11.158	740.03	136.91	118.81	925.85	528.72	74.833	747.96	59.206	-72.296	952.48	1648.3	19.848	884.29	1412.9	-20.532	812.34	672.51	-157.78	838.65	845.72	222.17	848.38	389.4	-38.846	807.76	763.23	-176.87	812.85	207.81	-29.384	829.7	298.97	-32.975	936.73	399.62	60.387	905.81	30.892	-24.754	854.35	763.58	170.26	892.52	676.29	158.94
918	4.59	775.7	1619.1	-80.948	9	2014	4	867.21	821.08	-291.96	940.89	545.91	138.08	772.38	1086.8	-296.38	952.46	702.5	114.14	936.73	69.353	113.74	836.26	1426.6	-184.26	854.29	64.291	147.54	742.22	1485.2	-17.321	887.57	322.44	133.39	803.07	949.28	-298.37	811.76	1222.4	-258.6	854.1	239.06	60.915	892.46	54.728	75.34	898.61	316.95	58	941.2	816.2	-278.88	785.88	124.69	40.76	957.76	32.667	-52.18	838.11	803.51	273.2	695.69	103.2	57.061	818.85	580.07	-135.15	846.09	1000.7	142.84	750.62	940.74	273.46	848.8	1040.1	-160.36	847.44	1020.4	-8.76	809.31	516.54	-124.26	723.59	1100.4	268.21	690.94	1104.2	189.26	657.06	1042.9	-42.324	928.63	589.1	140.75	823.75	296.27	-105.11	654.21	1042.6	26.821	765.83	945.7	-124.01	751.54	1031.6	-8.2557	847.44	1020.4	-8.76	763.98	918.95	82.163	655.63	1042.8	-7.7514	926.9	1011.1	-9.2513	856.69	1099.2	1.5461	846.73	1010.1	70.572	954.58	1649.5	-55.388	775.37	70.197	7.7809	686.49	35.091	-20.751	780.23	1614.5	55.722	804.51	1256.8	227.24	862.12	22.398	-106.68	670.22	1227.5	-9.4915	862.03	1205.1	-10.5	718.45	1378.6	134.63	877.75	680.52	-119.69	923.05	512.84	10.85	755.34	132.67	117.44	931.97	529.38	74.464	748	59.198	-72.231	956.86	1648.4	19.533	888.72	1413	-20.919	815.07	672.43	-158.07	842.64	845.73	221.45	849.5	389.11	-38.991	811.13	763.21	-177.14	813.33	207.66	-29.4	830.53	298.74	-33.06	945.57	400.15	60.178	905.82	30.912	-24.825	859.88	764.26	169.85	898.09	677.01	158.61
919	4.595	780.14	1619.2	-81.323	9	2014	4	875.96	821.99	-292.38	946.84	546.61	137.66	778.57	1086.8	-297.29	957.65	703.3	113.53	953.9	69.241	113.23	840.7	1426.8	-184.62	871.22	62.302	146.54	746.69	1485.3	-17.687	898.14	321.56	132.68	810.52	949.54	-298.98	817.12	1222.6	-259.25	867.22	237.39	59.996	910.06	53.845	74.581	909.89	316.33	57.272	949.98	817.84	-279.24	802.04	121.35	39.5	957.86	32.499	-52.34	842.11	803.44	272.46	712.2	97.82	55.313	821.02	579.98	-135.35	850.73	1000.7	142.47	754.69	940.76	272.81	853.36	1040.2	-161.08	852.05	1020.4	-9.305	811	516.41	-124.49	727.76	1100.4	267.64	695.2	1104.3	188.69	661.54	1043	-42.568	934.34	590	140.57	824.59	296.02	-105.18	658.79	1042.7	26.565	770.28	945.73	-124.68	756.11	1031.7	-8.6532	852.05	1020.4	-9.305	768.49	918.9	81.731	660.17	1042.9	-8.0015	931.5	1011.2	-9.8255	861.33	1099.2	1.0166	851.36	1010.1	70.025	959.01	1649.7	-55.701	775.42	70.161	7.8607	686.49	35.081	-20.646	784.63	1614.5	55.356	808.75	1256.9	226.81	862.11	22.396	-106.71	674.74	1227.6	-9.86	866.62	1205.2	-11.164	722.87	1378.7	134.18	880.52	680.09	-119.74	928.97	513.24	10.571	770.81	128.48	116.08	937.9	529.93	74.116	748.05	59.192	-72.165	961.27	1648.6	19.221	893.17	1413.1	-21.299	817.82	672.34	-158.35	846.67	845.71	220.71	850.63	388.81	-39.117	814.5	763.16	-177.4	813.83	207.49	-29.401	831.37	298.5	-33.134	954.31	400.68	59.981	905.84	30.932	-24.893	865.27	764.83	169.48	903.55	677.65	158.28
920	4.6	784.61	1619.2	-81.692	9	2014	4	884.67	822.87	-292.77	952.62	547.21	137.25	784.75	1086.8	-298.2	962.73	703.98	112.93	971.15	69.174	112.73	845.16	1426.9	-184.97	888.26	60.38	145.53	751.19	1485.4	-18.035	908.67	320.66	131.99	817.96	949.76	-299.61	822.46	1222.7	-259.91	880.36	235.75	59.122	927.73	53.045	73.839	921.09	315.7	56.602	958.71	819.45	-279.57	818.35	118.11	38.247	957.95	32.336	-52.491	846.17	803.34	271.72	728.92	92.529	53.565	823.21	579.88	-135.55	855.37	1000.7	142.13	758.82	940.73	272.19	857.91	1040.2	-161.81	856.64	1020.5	-9.8392	812.71	516.26	-124.7	731.96	1100.4	267.11	699.48	1104.3	188.17	666.02	1043.1	-42.805	939.91	590.8	140.4	825.45	295.76	-105.23	663.37	1042.8	26.314	774.71	945.7	-125.36	760.67	1031.7	-9.0422	856.64	1020.5	-9.8392	772.97	918.79	81.32	664.69	1043	-8.2452	936.09	1011.1	-10.387	865.96	1099.2	0.49716	855.97	1010.1	69.488	963.47	1649.7	-56.011	775.49	70.116	7.948	686.49	35.068	-20.536	789.05	1614.6	54.993	813.01	1256.9	226.41	862.1	22.393	-106.74	679.26	1227.6	-10.213	871.2	1205.2	-11.807	727.33	1378.7	133.75	883.29	679.65	-119.77	934.7	513.51	10.317	786.43	124.34	114.73	943.66	530.36	73.785	748.09	59.187	-72.098	965.7	1648.7	18.912	897.64	1413.2	-21.673	820.58	672.23	-158.61	850.73	845.65	219.96	851.77	388.5	-39.225	817.89	763.09	-177.65	814.34	207.32	-29.387	832.23	298.26	-33.193	962.96	401.21	59.785	905.85	30.951	-24.957	870.52	765.32	169.15	908.92	678.2	157.95
